<!-- This Source Code Form is subject to the terms of the Mozilla Public
   - License, v. 2.0. If a copy of the MPL was not distributed with this
   - file, You can obtain one at http://mozilla.org/MPL/2.0/. -->
<svg width="16" height="17" viewBox="0 0 16 17" fill="none" xmlns="http://www.w3.org/2000/svg">
  <path d="M8 3.5C7.72386 3.5 7.5 3.72386 7.5 4V8.79297L5.35352 6.64648C5.15826 6.45121 4.84174 6.45121 4.64648 6.64648C4.45121 6.84174 4.45121 7.15826 4.64648 7.35352L7.64648 10.3535C7.84174 10.5488 8.15826 10.5488 8.35352 10.3535L11.3535 7.35352C11.5487 7.15826 11.5487 6.84174 11.3535 6.64648C11.1582 6.45121 10.8418 6.45121 10.6465 6.64648L8.5 8.79297V4C8.5 3.72386 8.27614 3.5 8 3.5ZM4 10.5C3.72386 10.5 3.5 10.7239 3.5 11V12C3.5 12.8301 4.16986 13.5 5 13.5H11C11.8301 13.5 12.5 12.8301 12.5 12V11C12.5 10.7239 12.2761 10.5 12 10.5C11.7239 10.5 11.5 10.7239 11.5 11V12C11.5 12.2779 11.2779 12.5 11 12.5H5C4.72214 12.5 4.5 12.2779 4.5 12V11C4.5 10.7239 4.27614 10.5 4 10.5Z" fill="currentColor"/>
</svg>
