<svg width="28" height="36" viewBox="0 0 28 36" fill="none" xmlns="http://www.w3.org/2000/svg">
<g filter="url(#filter0_d_243_1329)">
<path d="M2 2C2 1.44772 2.44772 1 3 1H17.6667C17.883 1 18.0936 1.07018 18.2667 1.2L21.9431 3.95736C21.981 3.98575 22.0168 4.01679 22.0503 4.05025L25.7071 7.70711C25.8946 7.89464 26 8.149 26 8.41421V32C26 32.5523 25.5523 33 25 33H3C2.44772 33 2 32.5523 2 32V2Z" fill="url(#paint0_linear_243_1329)"/>
<rect opacity="0.1" x="5" y="7" width="15" height="1" rx="0.5" fill="black"/>
<rect opacity="0.1" x="5" y="9" width="15" height="1" rx="0.5" fill="black"/>
<rect opacity="0.1" x="5" y="11" width="16" height="1" rx="0.5" fill="black"/>
<rect opacity="0.1" x="5" y="13" width="18" height="1" rx="0.5" fill="black"/>
<rect opacity="0.1" x="5" y="15" width="18" height="1" rx="0.5" fill="black"/>
<rect opacity="0.1" x="5" y="17" width="17" height="1" rx="0.5" fill="black"/>
<rect opacity="0.1" x="5" y="19" width="14" height="1" rx="0.5" fill="black"/>
<rect opacity="0.1" x="5" y="21" width="18" height="1" rx="0.5" fill="black"/>
<g filter="url(#filter1_d_243_1329)">
<path d="M18 1C18 1 20.5 2.5 22.5 4.5C24.5 6.5 26 8 26 8C26 8 24 8.5 22 8.5C20.8907 8.5 19.7814 8.34618 19.0133 8.20917C18.4562 8.10978 18.1251 7.54754 18.2341 6.9922C18.3642 6.32925 18.5 5.41731 18.5 4.5C18.5 2.74012 18 1 18 1Z" fill="url(#paint1_linear_243_1329)"/>
</g>
</g>
<defs>
<filter id="filter0_d_243_1329" x="0" y="0" width="28" height="36" filterUnits="userSpaceOnUse" color-interpolation-filters="sRGB">
<feFlood flood-opacity="0" result="BackgroundImageFix"/>
<feColorMatrix in="SourceAlpha" type="matrix" values="0 0 0 0 0 0 0 0 0 0 0 0 0 0 0 0 0 0 127 0" result="hardAlpha"/>
<feOffset dy="1"/>
<feGaussianBlur stdDeviation="1"/>
<feComposite in2="hardAlpha" operator="out"/>
<feColorMatrix type="matrix" values="0 0 0 0 0 0 0 0 0 0 0 0 0 0 0 0 0 0 0.05 0"/>
<feBlend mode="normal" in2="BackgroundImageFix" result="effect1_dropShadow_243_1329"/>
<feBlend mode="normal" in="SourceGraphic" in2="effect1_dropShadow_243_1329" result="shape"/>
</filter>
<filter id="filter1_d_243_1329" x="15" y="0" width="12" height="11.5" filterUnits="userSpaceOnUse" color-interpolation-filters="sRGB">
<feFlood flood-opacity="0" result="BackgroundImageFix"/>
<feColorMatrix in="SourceAlpha" type="matrix" values="0 0 0 0 0 0 0 0 0 0 0 0 0 0 0 0 0 0 127 0" result="hardAlpha"/>
<feOffset dx="-1" dy="1"/>
<feGaussianBlur stdDeviation="1"/>
<feComposite in2="hardAlpha" operator="out"/>
<feColorMatrix type="matrix" values="0 0 0 0 0 0 0 0 0 0 0 0 0 0 0 0 0 0 0.1 0"/>
<feBlend mode="normal" in2="BackgroundImageFix" result="effect1_dropShadow_243_1329"/>
<feBlend mode="normal" in="SourceGraphic" in2="effect1_dropShadow_243_1329" result="shape"/>
</filter>
<linearGradient id="paint0_linear_243_1329" x1="14" y1="1" x2="14" y2="33" gradientUnits="userSpaceOnUse">
<stop stop-color="#F4F4F5"/>
<stop offset="1" stop-color="#E4E4E7"/>
</linearGradient>
<linearGradient id="paint1_linear_243_1329" x1="24" y1="3" x2="19" y2="7" gradientUnits="userSpaceOnUse">
<stop stop-color="#F4F4F5"/>
<stop offset="1" stop-color="#FAFAFA"/>
</linearGradient>
</defs>
</svg>
