<svg width="106" height="106" viewBox="0 0 106 106" fill="none" xmlns="http://www.w3.org/2000/svg">
<rect x="7" y="5" width="99" height="61" rx="6" fill="url(#paint0_linear_243_2013)"/>
<rect x="7" y="9" width="95" height="57" rx="2" fill="url(#paint1_linear_243_2013)"/>
<rect x="7" y="13" width="95" height="57" rx="2" fill="url(#paint2_linear_243_2013)"/>
<rect x="7" y="17" width="95" height="57" rx="2" fill="url(#paint3_linear_243_2013)"/>
<rect opacity="0.5" x="59" y="19" width="47" height="16" rx="6" fill="url(#paint4_linear_243_2013)"/>
<path d="M0 6C0 2.68629 2.68629 0 6 0H44.0147C45.606 0 47.1321 0.632141 48.2574 1.75736L65.7426 19.2426C66.8679 20.3679 68.394 21 69.9853 21H100C103.314 21 106 23.6863 106 27V100C106 103.314 103.314 106 100 106H6C2.68629 106 0 103.314 0 100V6Z" fill="url(#paint5_linear_243_2013)"/>
<path opacity="0.1" d="M0 11H41C42.1046 11 43 11.8954 43 13C43 14.1046 42.1046 15 41 15H0V11Z" fill="#47341F"/>
<path opacity="0.1" d="M0 99H106V101H0V99Z" fill="#47341F"/>
<path opacity="0.1" d="M0 95H106V97H0V95Z" fill="#47341F"/>
<defs>
<linearGradient id="paint0_linear_243_2013" x1="55.5" y1="-2.5" x2="55.5" y2="66" gradientUnits="userSpaceOnUse">
<stop stop-color="#B6986C"/>
<stop offset="1" stop-color="#755B38"/>
</linearGradient>
<linearGradient id="paint1_linear_243_2013" x1="54.5" y1="9" x2="54.5" y2="21.5" gradientUnits="userSpaceOnUse">
<stop stop-color="#F4F4F5"/>
<stop offset="1" stop-color="#D4D4D8"/>
</linearGradient>
<linearGradient id="paint2_linear_243_2013" x1="54.5" y1="13" x2="54.5" y2="23" gradientUnits="userSpaceOnUse">
<stop stop-color="#FAFAFA"/>
<stop offset="1" stop-color="#E4E4E7"/>
</linearGradient>
<linearGradient id="paint3_linear_243_2013" x1="54.5" y1="17" x2="54.5" y2="22" gradientUnits="userSpaceOnUse">
<stop stop-color="white"/>
<stop offset="1" stop-color="#E4E4E7"/>
</linearGradient>
<linearGradient id="paint4_linear_243_2013" x1="82.5" y1="19" x2="82.5" y2="35" gradientUnits="userSpaceOnUse">
<stop stop-color="#1A1838" stop-opacity="0"/>
<stop offset="1" stop-color="#1A1838"/>
</linearGradient>
<linearGradient id="paint5_linear_243_2013" x1="53" y1="23" x2="53" y2="149.5" gradientUnits="userSpaceOnUse">
<stop stop-color="#E4CDAB"/>
<stop offset="1" stop-color="#B6986C"/>
</linearGradient>
</defs>
</svg>
