<svg width="96" height="36" viewBox="0 0 96 36" fill="none" xmlns="http://www.w3.org/2000/svg">
<path d="M15.7478 6.15959H15.7515C16.948 2.02061 22.1617 0 27.4748 0C31.1456 0 34.4418 1.15048 36.7008 2.97614C35.3015 3.0448 33.97 3.31575 32.7513 3.75312C34.5767 4.42417 36.1449 5.45738 37.3074 6.73545C36.5363 6.60362 35.7364 6.53422 34.9164 6.53422C34.8279 6.53422 34.7396 6.53508 34.6517 6.53669C36.7635 9.5665 38 13.2396 38 17.1987C38 27.5824 29.4934 36 19 36C8.66833 36 0 27.4398 0 17.1987C0 15.5812 0.217555 13.9107 0.639171 12.3449C0.749469 12.016 0.903726 11.7006 1.10858 11.5852C1.36496 11.4408 1.59799 11.8713 1.63573 12.0116C1.91418 13.046 2.28933 14.0466 2.75206 15.0049C2.71167 12.8581 3.63822 10.9032 4.91328 9.21174C5.76318 8.08431 6.55097 7.03917 6.9148 4.02408C6.93922 3.82167 7.13324 3.67598 7.329 3.73937C10.0956 4.63571 11.6303 9.57284 11.4 13.3847C12.9285 13.6008 12.8657 11.6424 12.8657 11.6424C12.3771 10.1568 12.7029 7.3951 15.7429 6.15959H15.7478Z" fill="url(#paint0_linear_1_3)"/>
<path opacity="0.9" d="M37.3784 12.4105C37.8405 22.7515 29.2497 31.6668 18.7738 31.6668C8.9674 31.6668 0.931233 24.1663 0.204369 14.6465C0.0762978 15.526 0.00696442 16.4243 0.000450134 17.3372C0.0748759 27.5245 8.72225 35.9999 18.9999 35.9999C29.4934 35.9999 38 27.5823 38 17.1985C38 15.5439 37.784 13.9393 37.3784 12.4105Z" fill="url(#paint1_radial_1_3)"/>
<path d="M18.5373 7.52994C18.3324 7.17142 17.3872 6.64133 16.9743 6.54894C18.5373 1.59355 26.5024 0.0721538 31.3773 0.94893C33.4057 1.31378 35.9325 2.40813 36.701 2.97615C34.4419 1.15048 31.1457 0 27.4749 0C22.1618 0 16.9481 2.02061 15.7517 6.15959H15.748H15.743C12.703 7.39511 12.3776 10.1576 12.8662 11.6432C13.335 9.87119 15.5669 7.69346 18.5373 7.52994Z" fill="url(#paint2_radial_1_3)"/>
<path d="M24.0585 4.1078C19.7905 4.93872 18.3958 5.21032 16.9672 6.55402C18.5716 2.35133 22.6667 1.49979 27.546 3.41527C26.203 3.6902 25.0528 3.9142 24.0585 4.1078Z" fill="url(#paint3_linear_1_3)"/>
<path d="M1.03156 11.7694C-0.13438 16.4932 0.766568 22.0455 6.06378 26.7051C4.48667 24.9988 2.56159 18.6975 6.81032 14.1956C7.09651 13.8923 7.58888 14.1155 7.60441 14.5302C7.60441 27.1903 17.263 28.6944 22.9088 28.1035C20.1836 27.952 12.6411 25.2561 19.3452 24.0202C22.8496 23.3742 28.3441 22.3613 28.3441 17.4833C28.3441 9.57448 22.1643 7.26224 18.4174 7.60625C15.8527 7.84175 13.5701 9.45201 12.8674 11.6418C13.1371 12.5053 12.1177 13.6474 11.4002 13.5459C11.6305 9.73403 10.0958 4.63575 7.32918 3.73941C7.13343 3.67602 6.93941 3.8217 6.91498 4.02411C6.55116 7.0392 5.76336 8.08434 4.91347 9.21178C3.6384 10.9033 2.71185 12.8582 2.75224 15.005C2.28951 14.0466 1.91436 13.0461 1.63591 12.0117C1.60466 11.8955 1.43499 11.572 1.2296 11.5567C1.11842 11.5484 1.05957 11.656 1.03156 11.7694Z" fill="url(#paint4_radial_1_3)"/>
<path d="M18.24 26.2769C24.1751 29.2353 33.7472 24.2519 31.5704 14.4052C28.8351 21.4293 24.4521 26.5444 18.24 26.2769Z" fill="url(#paint5_linear_1_3)"/>
<path d="M6.81 14.195C6.91889 14.0796 7.05776 14.04 7.18902 14.058C3.38576 18.6478 6.45323 26.7096 8.55865 28.6899C8.67623 29.0196 6.56159 27.3048 6.26996 26.9033C4.66864 25.5588 2.37344 18.8959 6.81 14.195Z" fill="url(#paint6_linear_1_3)"/>
<mask id="mask0_1_3" style="mask-type:alpha" maskUnits="userSpaceOnUse" x="9" y="9" width="20" height="19">
<path d="M19.0542 9.24792C24.0611 9.24792 28.1199 13.2643 28.1199 18.2188C28.1199 20.1542 27.5005 21.9463 26.4473 23.412C24.046 26.0196 21.1106 26.4633 19.2571 26.388C18.9349 26.3749 18.753 26.7731 19.0198 26.9527C19.1484 27.0392 19.2742 27.1154 19.3976 27.1833C19.2837 27.1876 19.1692 27.1898 19.0542 27.1898C14.0473 27.1898 9.98848 23.1734 9.98848 18.2188C9.98848 13.2643 14.0473 9.24792 19.0542 9.24792Z" fill="url(#paint7_linear_1_3)"/>
</mask>
<g mask="url(#mask0_1_3)">
<path d="M29.9658 7.5296H8.25147V29.0168H29.9658V7.5296Z" fill="url(#paint8_linear_1_3)"/>
</g>
<mask id="mask1_1_3" style="mask-type:luminance" maskUnits="userSpaceOnUse" x="12" y="11" width="14" height="14">
<path d="M25.5143 11.6119H12.4857V24.5042H25.5143V11.6119Z" fill="white"/>
</mask>
<g mask="url(#mask1_1_3)">
<path opacity="0.3" d="M12.4857 18.8638H25.5143" stroke="#1373D9" stroke-width="0.925715"/>
<path d="M19.0667 11.7736C21.8856 11.8098 24.1301 14.1406 24.1301 16.9735V21.4696C24.1301 23.0398 22.8742 24.3432 21.2874 24.3432C19.7367 24.3432 18.3487 23.0754 18.3487 21.4696V17.399H16.9965L16.9765 17.3983C16.7798 17.3835 16.6824 17.1507 16.8108 17.0025L16.8244 16.988L18.7419 15.0906C18.88 14.9539 19.1014 14.9495 19.2447 15.0777L19.2583 15.0906L21.1757 16.988C21.3289 17.1397 21.2205 17.399 21.0037 17.399H19.6515V21.4696C19.6515 22.3258 20.4177 23.054 21.2874 23.054C22.121 23.054 22.8272 22.3615 22.8272 21.4696V16.9735C22.8272 14.8306 21.1506 13.1166 19.098 13.0637L19.0001 13.0624C16.9032 13.0624 15.1729 14.7966 15.1729 16.9735V18.4611H13.8701V16.9735C13.8701 14.1184 16.1501 11.7731 19.0001 11.7731L19.0667 11.7736Z" fill="url(#paint9_linear_1_3)"/>
</g>
<path d="M19.9524 5.66224C20.8497 5.48042 20.7712 4.90874 20.7712 4.90874C20.7712 4.90874 20.3222 4.56885 19.4333 4.75719C18.6011 4.93356 18.4722 5.31489 18.4722 5.31489C18.4722 5.31489 18.9268 5.87015 19.9524 5.66224Z" fill="white"/>
<g clip-path="url(#clip0_1_3)">
<path d="M51.4711 25.9751C48.8736 25.9751 46.6726 25.0985 45 23.542L46.5847 21.5913C47.9713 22.8408 49.5781 23.6298 51.5589 23.6298C53.4299 23.6298 54.3983 22.709 54.3983 21.6351C54.3983 20.3857 53.3197 19.9693 50.8985 19.3994C47.7732 18.676 45.5943 17.7774 45.5943 14.9498C45.5943 12.3195 47.8394 10.3906 51.0308 10.3906C53.4299 10.3906 55.2347 11.2016 56.7536 12.4948L55.2568 14.5114C53.936 13.3716 52.4174 12.736 50.9206 12.736C49.402 12.736 48.3675 13.6566 48.3675 14.7087C48.3675 15.9361 49.4899 16.3746 51.8893 16.9225C55.0366 17.6239 57.1498 18.6322 57.1498 21.3721C57.1498 24.0683 55.0807 25.9751 51.4711 25.9751ZM64.4346 23.6298C65.4912 23.6298 66.7459 23.1475 67.3839 22.4898L69.0788 24.2436C68.0884 25.2958 66.1075 25.997 64.4567 25.997C61.1991 25.997 58.5137 23.5201 58.5137 20.035C58.5137 16.6376 61.0671 14.1388 64.3027 14.1388C67.8241 14.1388 69.8712 16.791 69.8712 20.9776H61.2873C61.6173 22.5337 62.8058 23.6298 64.4346 23.6298ZM64.4126 16.5061C62.9157 16.5061 61.7052 17.4486 61.309 18.9391H67.296C66.9877 17.5143 66.0193 16.5061 64.4126 16.5061ZM77.9654 14.1388C80.4527 14.1388 82.1914 15.9581 82.1914 18.5226V25.7339H79.5942V19.0487C79.5942 17.5143 78.6038 16.4184 77.1951 16.4184C75.7865 16.4184 74.62 17.3609 74.4439 18.5665V25.7339H71.7586V14.4018H74.4439V15.9142C75.1481 14.8621 76.4689 14.1388 77.9654 14.1388ZM93.3165 10.4125H96.0019V25.7339H93.3165V23.9805C92.4143 25.2519 91.0494 25.997 89.3768 25.997C86.3614 25.997 84.1604 23.542 84.1604 20.057C84.1604 16.5937 86.3614 14.1388 89.3768 14.1388C91.0494 14.1388 92.4143 14.8841 93.3165 16.1553V10.4125ZM90.103 23.7173C91.9961 23.7173 93.3165 22.1831 93.3165 20.057C93.3165 17.9308 91.9961 16.4184 90.103 16.4184C88.1883 16.4184 86.8234 17.9308 86.8234 20.057C86.8234 22.1831 88.1883 23.7173 90.103 23.7173Z" fill="white"/>
</g>
<defs>
<linearGradient id="paint0_linear_1_3" x1="6.59473" y1="6.19697" x2="33.1169" y2="31.1976" gradientUnits="userSpaceOnUse">
<stop stop-color="#1B91F3"/>
<stop offset="1" stop-color="#0B68CB"/>
</linearGradient>
<radialGradient id="paint1_radial_1_3" cx="0" cy="0" r="1" gradientTransform="matrix(6.40182 14.5817 -14.1165 6.06865 6.54539 14.7034)" gradientUnits="userSpaceOnUse">
<stop offset="0.525579" stop-color="#0B4186" stop-opacity="0"/>
<stop offset="1" stop-color="#0B4186" stop-opacity="0.45"/>
</radialGradient>
<radialGradient id="paint2_radial_1_3" cx="0" cy="0" r="1" gradientTransform="matrix(-2.11434 -2.67852 4.47912 -3.46213 19.4886 8.17402)" gradientUnits="userSpaceOnUse">
<stop stop-color="#A29CF6" stop-opacity="0"/>
<stop offset="1" stop-color="#A39BF6"/>
</radialGradient>
<linearGradient id="paint3_linear_1_3" x1="14.0474" y1="12.5259" x2="23.5734" y2="1.80935" gradientUnits="userSpaceOnUse">
<stop stop-color="#0F5DB0"/>
<stop offset="1" stop-color="#0F5DB0" stop-opacity="0"/>
</linearGradient>
<radialGradient id="paint4_radial_1_3" cx="0" cy="0" r="1" gradientTransform="matrix(10.8843 -22.3422 27.8907 13.3047 11.8345 27.4426)" gradientUnits="userSpaceOnUse">
<stop offset="0.0160882" stop-color="#094188"/>
<stop offset="0.967387" stop-color="#0B4186" stop-opacity="0"/>
</radialGradient>
<linearGradient id="paint5_linear_1_3" x1="31.0467" y1="19.3872" x2="29.8981" y2="28.4075" gradientUnits="userSpaceOnUse">
<stop stop-color="#7B8BE9" stop-opacity="0"/>
<stop offset="1" stop-color="#7B8BE9"/>
</linearGradient>
<linearGradient id="paint6_linear_1_3" x1="4.23425" y1="14.0287" x2="6.78247" y2="26.2825" gradientUnits="userSpaceOnUse">
<stop offset="0.104632" stop-color="#C59FF9"/>
<stop offset="1" stop-color="#C59FF9" stop-opacity="0"/>
</linearGradient>
<linearGradient id="paint7_linear_1_3" x1="20.3133" y1="12.3379" x2="20.8558" y2="33.2703" gradientUnits="userSpaceOnUse">
<stop stop-color="white"/>
<stop offset="0.81088" stop-color="#BEE1FE"/>
<stop offset="1" stop-color="#96CEFD"/>
</linearGradient>
<linearGradient id="paint8_linear_1_3" x1="14.3858" y1="9.94692" x2="29.0866" y2="24.6709" gradientUnits="userSpaceOnUse">
<stop offset="0.0677225" stop-color="white"/>
<stop offset="1" stop-color="#BEE1FE"/>
</linearGradient>
<linearGradient id="paint9_linear_1_3" x1="11.5833" y1="10.7726" x2="18.8034" y2="26.127" gradientUnits="userSpaceOnUse">
<stop stop-color="#6AA9E5"/>
<stop offset="0.994972" stop-color="#0D5BB2"/>
</linearGradient>
<clipPath id="clip0_1_3">
<rect width="51" height="36" fill="white" transform="translate(45)"/>
</clipPath>
</defs>
</svg>
